<svg width="512" height="512" viewBox="0 0 512 512" fill="none" xmlns="http://www.w3.org/2000/svg">
<path d="M116.057 313.56C114.899 314.095 113.873 314.004 112.864 314.004C100.278 314.009 87.6923 313.998 75.1064 314.018C72.7265 314.022 70.4362 313.888 69.472 311.201C68.4722 308.415 69.3288 305.685 72.0004 303.961C76.6445 300.964 78.4626 296.73 78.4441 291.323C78.3718 270.205 78.369 249.087 78.4547 227.97C78.4705 224.077 78.1366 220.22 77.8292 216.365C77.502 212.262 75.3886 209.057 71.8025 206.915C69.7351 205.681 68.6975 203.896 68.7921 201.463C68.9195 198.185 71.1102 196.152 74.8881 196.068C79.3576 195.969 83.8259 196.361 88.284 196.439C97.0565 196.592 105.841 196.826 114.622 196.291C116.801 196.158 119.055 196.595 119.989 199.179C120.909 201.724 120.195 204.555 117.779 206.088C114.474 208.186 112.058 210.851 111.393 214.77C111.001 217.084 110.766 219.45 110.733 221.797C110.642 228.131 110.69 234.467 110.697 240.803C110.702 244.501 112.568 246.506 116.226 246.495C123.994 246.472 131.761 246.313 139.531 246.565C142.552 246.663 144.709 244.374 144.817 241.328C145.097 233.47 144.577 225.626 144.23 217.787C144.034 213.357 142.426 209.459 138.281 206.951C135.383 205.198 134.619 202.716 135.577 199.806C136.468 197.098 138.159 195.986 141.693 196.049C148.099 196.163 154.504 196.334 160.907 196.546C166.91 196.744 172.885 196.123 178.878 196.042C181.42 196.007 183.867 196.248 184.921 199.108C186.024 202.104 185.178 204.966 182.293 206.846C177.727 209.823 176.02 213.984 176.038 219.305C176.116 243.378 176.074 267.453 176.055 291.527C176.05 296.643 177.472 300.949 182.153 303.779C183.703 304.716 185.132 305.969 185.223 308.145C185.38 311.892 183.673 313.956 179.901 313.973C166.893 314.033 153.885 314.022 140.876 313.985C138.797 313.98 136.764 313.55 135.884 311.281C134.915 308.784 135.617 305.55 137.839 304.247C143.433 300.97 145.025 296.013 144.865 289.901C144.665 282.219 144.827 274.529 144.814 266.842C144.808 262.668 142.973 260.797 138.812 260.783C131.21 260.758 123.607 260.762 116.005 260.788C111.997 260.802 110.205 262.651 110.199 266.723C110.188 274.579 110.122 282.436 110.221 290.29C110.291 295.898 111.637 300.814 116.962 304.101C120.813 306.479 120.245 311.356 116.057 313.56Z" fill="#FFFDF5"/>
<path d="M433.586 226.653C433.571 233.406 433.863 239.928 433.469 246.408C432.881 256.111 433.602 265.831 432.978 275.5C432.203 287.524 428.658 298.531 418.703 306.448C412.465 311.41 405.23 314.17 397.483 315.393C387.004 317.049 376.555 316.873 366.184 314.098C350.757 309.97 340.606 298.593 338.387 282.811C337.703 277.949 337.412 273.096 337.421 268.199C337.45 251.899 337.397 235.598 337.456 219.298C337.474 214.029 335.869 209.772 331.169 206.883C328.685 205.355 327.813 202.571 328.592 200.065C329.427 197.38 331.303 196.208 334.609 196.025C339.848 195.735 345.045 196.417 350.264 196.569C357.696 196.785 365.095 196.02 372.517 196.031C374.918 196.034 377.141 196.39 378.225 198.871C379.315 201.363 378.657 204.35 376.307 206.169C371.672 209.757 370.143 214.47 370.181 220.145C370.297 237.457 370.046 254.773 370.315 272.081C370.423 279.01 371.557 285.936 376.682 291.326C383.37 298.361 391.731 299.191 400.527 297.051C408.934 295.004 413.062 288.746 414.955 280.731C416.596 273.782 416.594 266.696 416.611 259.622C416.63 251.768 416.855 243.896 416.409 236.065C416.012 229.091 416.178 222.069 415.066 215.138C414.501 211.623 412.86 208.819 409.757 206.928C408.144 205.946 406.732 204.766 406.408 202.719C405.8 198.877 407.827 196.216 412.099 196.12C420.709 195.928 429.327 195.994 437.94 196.101C440.212 196.129 442.28 197.028 443.063 199.508C443.817 201.897 443.102 204.723 440.812 205.988C435.416 208.968 433.914 213.635 434.023 219.361C434.067 221.695 433.418 224.033 433.586 226.653Z" fill="#FFFDF5"/>
<path d="M205.232 200.546C206.311 196.838 209.109 196.046 212.217 196.067C219.977 196.118 227.724 196.742 235.494 196.567C240.215 196.46 244.908 195.824 249.646 196.002C252.067 196.093 254.222 196.338 255.166 199.002C256.116 201.687 255.416 204.397 253.003 206.208C250.411 208.152 248.365 210.416 247.756 213.678C247.416 215.494 247.195 217.343 247.071 219.187C246.33 230.226 246.559 241.282 246.547 252.333C246.538 259.513 246.368 266.699 246.603 273.871C246.783 279.358 247.713 284.761 250.743 289.561C254.16 294.973 259.003 297.811 265.439 297.936C270.195 298.028 274.904 298.006 279.138 295.342C284.551 291.936 287.328 286.825 288.79 280.78C291.084 271.291 290.276 261.645 290.28 252.052C290.284 242.683 290.014 233.313 289.744 223.947C289.662 221.101 289.271 218.253 288.858 215.429C288.302 211.632 286.371 208.723 283.046 206.668C280.223 204.922 279.325 202.287 280.29 199.264C281.073 196.809 283.285 196.2 285.349 196.16C293.877 195.998 302.41 195.985 310.939 196.125C313.23 196.162 315.558 196.991 316.276 199.626C316.954 202.111 316.479 204.639 314.148 205.868C307.797 209.214 307.135 215.067 306.879 221.182C306.797 223.121 306.86 225.067 306.861 227.01C306.871 243.214 306.696 259.43 306.177 275.61C305.571 294.536 295.928 309.804 274.635 314.569C260.017 317.84 245.639 317.325 232.094 310.223C222.042 304.953 216.659 296.259 214.729 285.199C213.81 279.931 213.755 274.647 213.762 269.337C213.784 252.274 213.705 235.211 213.798 218.148C213.823 213.502 212.077 209.919 208.304 207.403C205.826 205.751 204.803 203.638 205.232 200.546Z" fill="#FFFDF5"/>
<path d="M77.9606 424V392.71H88.2506C91.3586 392.71 94.0606 393.354 96.3566 394.642C98.6526 395.902 100.431 397.708 101.691 400.06C102.951 402.384 103.581 405.142 103.581 408.334C103.581 411.498 102.951 414.256 101.691 416.608C100.431 418.96 98.6526 420.78 96.3566 422.068C94.0606 423.356 91.3586 424 88.2506 424H77.9606ZM81.3206 420.85H88.2506C90.6586 420.85 92.7446 420.346 94.5086 419.338C96.2726 418.302 97.6306 416.846 98.5827 414.97C99.5626 413.094 100.053 410.882 100.053 408.334C100.053 405.786 99.5626 403.588 98.5827 401.74C97.6027 399.864 96.2306 398.422 94.4666 397.414C92.7026 396.378 90.6306 395.86 88.2506 395.86H81.3206V420.85ZM118.919 424.504C116.819 424.504 114.915 424 113.207 422.992C111.527 421.956 110.197 420.542 109.217 418.75C108.237 416.958 107.747 414.928 107.747 412.66C107.747 410.392 108.223 408.39 109.175 406.654C110.127 404.89 111.415 403.504 113.039 402.496C114.691 401.488 116.539 400.984 118.583 400.984C120.207 400.984 121.649 401.292 122.909 401.908C124.197 402.496 125.289 403.308 126.185 404.344C127.081 405.352 127.767 406.5 128.243 407.788C128.719 409.048 128.957 410.35 128.957 411.694C128.957 411.974 128.943 412.296 128.915 412.66C128.887 412.996 128.845 413.346 128.789 413.71H109.763V410.77H126.983L125.471 412.03C125.723 410.49 125.541 409.118 124.925 407.914C124.337 406.682 123.483 405.716 122.363 405.016C121.243 404.288 119.983 403.924 118.583 403.924C117.183 403.924 115.881 404.288 114.677 405.016C113.501 405.744 112.577 406.766 111.905 408.082C111.233 409.37 110.967 410.91 111.107 412.702C110.967 414.494 111.247 416.062 111.947 417.406C112.675 418.722 113.655 419.744 114.887 420.472C116.147 421.2 117.491 421.564 118.919 421.564C120.571 421.564 121.957 421.172 123.077 420.388C124.197 419.604 125.107 418.624 125.807 417.448L128.495 418.876C128.047 419.884 127.361 420.822 126.437 421.69C125.513 422.53 124.407 423.216 123.119 423.748C121.859 424.252 120.459 424.504 118.919 424.504ZM142.322 424.504C140.166 424.504 138.276 423.958 136.652 422.866C135.028 421.774 133.852 420.29 133.124 418.414L135.77 417.154C136.414 418.526 137.31 419.618 138.458 420.43C139.634 421.242 140.922 421.648 142.322 421.648C143.666 421.648 144.8 421.326 145.724 420.682C146.648 420.01 147.11 419.142 147.11 418.078C147.11 417.294 146.886 416.678 146.438 416.23C145.99 415.754 145.472 415.39 144.884 415.138C144.296 414.886 143.778 414.704 143.33 414.592L140.096 413.668C138.024 413.08 136.526 412.254 135.602 411.19C134.678 410.126 134.216 408.894 134.216 407.494C134.216 406.178 134.552 405.03 135.224 404.05C135.896 403.07 136.806 402.314 137.954 401.782C139.102 401.25 140.376 400.984 141.776 400.984C143.68 400.984 145.402 401.488 146.942 402.496C148.51 403.476 149.616 404.848 150.26 406.612L147.572 407.872C147.012 406.612 146.2 405.632 145.136 404.932C144.1 404.204 142.938 403.84 141.65 403.84C140.39 403.84 139.382 404.162 138.626 404.806C137.87 405.45 137.492 406.262 137.492 407.242C137.492 407.998 137.688 408.6 138.08 409.048C138.472 409.496 138.92 409.832 139.424 410.056C139.956 410.28 140.418 410.448 140.81 410.56L144.548 411.652C146.368 412.184 147.782 413.01 148.79 414.13C149.826 415.25 150.344 416.566 150.344 418.078C150.344 419.31 149.994 420.416 149.294 421.396C148.622 422.376 147.684 423.146 146.48 423.706C145.276 424.238 143.89 424.504 142.322 424.504ZM155.88 424V401.488H159.03V424H155.88ZM155.88 397.33V392.71H159.03V397.33H155.88ZM176.145 433.24C174.605 433.24 173.177 433.002 171.861 432.526C170.573 432.05 169.453 431.392 168.501 430.552C167.577 429.74 166.863 428.788 166.359 427.696L169.257 426.142C169.705 427.206 170.503 428.13 171.651 428.914C172.799 429.698 174.269 430.09 176.061 430.09C177.433 430.09 178.693 429.824 179.841 429.292C180.989 428.76 181.913 427.976 182.613 426.94C183.313 425.904 183.663 424.63 183.663 423.118V418.12L184.167 418.582C183.383 420.206 182.221 421.466 180.681 422.362C179.141 423.23 177.461 423.664 175.641 423.664C173.541 423.664 171.651 423.16 169.971 422.152C168.291 421.144 166.961 419.786 165.981 418.078C165.029 416.342 164.553 414.424 164.553 412.324C164.553 410.196 165.029 408.278 165.981 406.57C166.961 404.862 168.277 403.504 169.929 402.496C171.609 401.488 173.513 400.984 175.641 400.984C177.461 400.984 179.113 401.404 180.597 402.244C182.109 403.084 183.299 404.218 184.167 405.646L183.663 406.528V401.488H186.813V423.118C186.813 425.05 186.351 426.772 185.427 428.284C184.531 429.824 183.271 431.028 181.647 431.896C180.051 432.792 178.217 433.24 176.145 433.24ZM175.809 420.514C177.265 420.514 178.581 420.15 179.757 419.422C180.933 418.666 181.871 417.672 182.571 416.44C183.299 415.18 183.663 413.808 183.663 412.324C183.663 410.84 183.299 409.482 182.571 408.25C181.871 406.99 180.933 405.996 179.757 405.268C178.581 404.512 177.265 404.134 175.809 404.134C174.325 404.134 172.981 404.512 171.777 405.268C170.573 405.996 169.621 406.976 168.921 408.208C168.249 409.44 167.913 410.812 167.913 412.324C167.913 413.808 168.249 415.18 168.921 416.44C169.621 417.672 170.559 418.666 171.735 419.422C172.939 420.15 174.297 420.514 175.809 420.514ZM193.286 424V401.488H196.436V405.856L195.722 405.688C196.282 404.232 197.192 403.084 198.452 402.244C199.74 401.404 201.224 400.984 202.904 400.984C204.5 400.984 205.928 401.348 207.188 402.076C208.476 402.804 209.484 403.812 210.212 405.1C210.968 406.36 211.346 407.788 211.346 409.384V424H208.196V410.602C208.196 409.23 207.944 408.068 207.44 407.116C206.964 406.164 206.278 405.436 205.382 404.932C204.514 404.4 203.506 404.134 202.358 404.134C201.21 404.134 200.188 404.4 199.292 404.932C198.396 405.436 197.696 406.178 197.192 407.158C196.688 408.11 196.436 409.258 196.436 410.602V424H193.286ZM227.61 424.504C225.51 424.504 223.606 424 221.898 422.992C220.218 421.956 218.888 420.542 217.908 418.75C216.928 416.958 216.438 414.928 216.438 412.66C216.438 410.392 216.914 408.39 217.866 406.654C218.818 404.89 220.106 403.504 221.73 402.496C223.382 401.488 225.23 400.984 227.274 400.984C228.898 400.984 230.34 401.292 231.6 401.908C232.888 402.496 233.98 403.308 234.876 404.344C235.772 405.352 236.458 406.5 236.934 407.788C237.41 409.048 237.648 410.35 237.648 411.694C237.648 411.974 237.634 412.296 237.606 412.66C237.578 412.996 237.536 413.346 237.48 413.71H218.454V410.77H235.674L234.162 412.03C234.414 410.49 234.232 409.118 233.616 407.914C233.028 406.682 232.174 405.716 231.054 405.016C229.934 404.288 228.674 403.924 227.274 403.924C225.874 403.924 224.572 404.288 223.368 405.016C222.192 405.744 221.268 406.766 220.596 408.082C219.924 409.37 219.658 410.91 219.798 412.702C219.658 414.494 219.938 416.062 220.638 417.406C221.366 418.722 222.346 419.744 223.578 420.472C224.838 421.2 226.182 421.564 227.61 421.564C229.262 421.564 230.648 421.172 231.768 420.388C232.888 419.604 233.798 418.624 234.498 417.448L237.186 418.876C236.738 419.884 236.052 420.822 235.128 421.69C234.204 422.53 233.098 423.216 231.81 423.748C230.55 424.252 229.15 424.504 227.61 424.504ZM253.366 424.504C251.266 424.504 249.376 424 247.696 422.992C246.016 421.956 244.686 420.556 243.706 418.792C242.754 417 242.278 414.984 242.278 412.744C242.278 410.476 242.754 408.46 243.706 406.696C244.686 404.932 246.002 403.546 247.654 402.538C249.334 401.502 251.238 400.984 253.366 400.984C255.298 400.984 257.02 401.404 258.532 402.244C260.044 403.084 261.234 404.218 262.102 405.646L261.598 406.528V392.206H264.748V424H261.598V418.96L262.102 419.422C261.318 421.046 260.142 422.306 258.574 423.202C257.034 424.07 255.298 424.504 253.366 424.504ZM253.534 421.354C255.046 421.354 256.404 420.976 257.608 420.22C258.84 419.464 259.806 418.442 260.506 417.154C261.234 415.838 261.598 414.368 261.598 412.744C261.598 411.12 261.234 409.664 260.506 408.376C259.806 407.06 258.84 406.024 257.608 405.268C256.404 404.512 255.046 404.134 253.534 404.134C252.05 404.134 250.706 404.512 249.502 405.268C248.298 406.024 247.346 407.046 246.646 408.334C245.974 409.622 245.638 411.092 245.638 412.744C245.638 414.368 245.974 415.838 246.646 417.154C247.346 418.442 248.284 419.464 249.46 420.22C250.664 420.976 252.022 421.354 253.534 421.354ZM289.734 424.504C287.802 424.504 286.052 424.07 284.484 423.202C282.944 422.306 281.782 421.046 280.998 419.422L281.502 418.96V424H278.352V392.206H281.502V406.528L280.998 405.646C281.894 404.218 283.084 403.084 284.568 402.244C286.08 401.404 287.802 400.984 289.734 400.984C291.862 400.984 293.752 401.502 295.404 402.538C297.084 403.546 298.4 404.932 299.352 406.696C300.332 408.46 300.822 410.476 300.822 412.744C300.822 414.984 300.332 417 299.352 418.792C298.4 420.556 297.084 421.956 295.404 422.992C293.752 424 291.862 424.504 289.734 424.504ZM289.566 421.354C291.078 421.354 292.422 420.976 293.598 420.22C294.802 419.464 295.74 418.442 296.412 417.154C297.112 415.838 297.462 414.368 297.462 412.744C297.462 411.092 297.112 409.622 296.412 408.334C295.74 407.046 294.802 406.024 293.598 405.268C292.422 404.512 291.078 404.134 289.566 404.134C288.054 404.134 286.682 404.512 285.45 405.268C284.246 406.024 283.28 407.06 282.552 408.376C281.852 409.664 281.502 411.12 281.502 412.744C281.502 414.368 281.852 415.838 282.552 417.154C283.28 418.442 284.246 419.464 285.45 420.22C286.682 420.976 288.054 421.354 289.566 421.354ZM306.418 433.24C305.97 433.24 305.508 433.198 305.032 433.114C304.584 433.058 304.136 432.946 303.688 432.778V429.838C303.968 429.866 304.318 429.908 304.738 429.964C305.186 430.048 305.634 430.09 306.082 430.09C307.454 430.09 308.504 429.796 309.232 429.208C309.96 428.648 310.674 427.556 311.374 425.932L312.802 422.572L312.718 425.344L303.184 401.488H306.586L314.398 421.186H313.516L321.286 401.488H324.772L314.482 426.856C314.034 427.948 313.46 428.984 312.76 429.964C312.088 430.944 311.234 431.728 310.198 432.316C309.162 432.932 307.902 433.24 306.418 433.24ZM336.072 424V392.71H346.362C349.47 392.71 352.172 393.354 354.468 394.642C356.764 395.902 358.542 397.708 359.802 400.06C361.062 402.384 361.692 405.142 361.692 408.334C361.692 411.498 361.062 414.256 359.802 416.608C358.542 418.96 356.764 420.78 354.468 422.068C352.172 423.356 349.47 424 346.362 424H336.072ZM339.432 420.85H346.362C348.77 420.85 350.856 420.346 352.62 419.338C354.384 418.302 355.742 416.846 356.694 414.97C357.674 413.094 358.164 410.882 358.164 408.334C358.164 405.786 357.674 403.588 356.694 401.74C355.714 399.864 354.342 398.422 352.578 397.414C350.814 396.378 348.742 395.86 346.362 395.86H339.432V420.85ZM374.762 424.504C373.194 424.504 371.766 424.14 370.478 423.412C369.19 422.656 368.168 421.62 367.412 420.304C366.684 418.96 366.32 417.42 366.32 415.684V401.488H369.47V415.306C369.47 416.51 369.708 417.574 370.184 418.498C370.688 419.394 371.374 420.094 372.242 420.598C373.138 421.102 374.16 421.354 375.308 421.354C376.456 421.354 377.478 421.102 378.374 420.598C379.27 420.066 379.97 419.324 380.474 418.372C380.978 417.392 381.23 416.23 381.23 414.886V401.488H384.38V424H381.23V419.632L381.944 419.8C381.412 421.256 380.502 422.404 379.214 423.244C377.926 424.084 376.442 424.504 374.762 424.504ZM397.368 424.504C395.94 424.504 394.666 424.238 393.546 423.706C392.426 423.146 391.544 422.39 390.9 421.438C390.256 420.486 389.934 419.394 389.934 418.162C389.934 416.986 390.186 415.922 390.69 414.97C391.194 413.99 391.978 413.164 393.042 412.492C394.106 411.82 395.464 411.344 397.116 411.064L405.936 409.594V412.45L397.872 413.794C396.248 414.074 395.072 414.592 394.344 415.348C393.644 416.104 393.294 417 393.294 418.036C393.294 419.044 393.686 419.898 394.47 420.598C395.282 421.298 396.318 421.648 397.578 421.648C399.118 421.648 400.462 421.326 401.61 420.682C402.758 420.01 403.654 419.114 404.298 417.994C404.942 416.874 405.264 415.628 405.264 414.256V408.544C405.264 407.2 404.774 406.108 403.794 405.268C402.814 404.428 401.54 404.008 399.972 404.008C398.6 404.008 397.396 404.358 396.36 405.058C395.324 405.73 394.554 406.612 394.05 407.704L391.194 406.15C391.614 405.198 392.272 404.33 393.168 403.546C394.092 402.762 395.142 402.146 396.318 401.698C397.494 401.222 398.712 400.984 399.972 400.984C401.624 400.984 403.08 401.306 404.34 401.95C405.628 402.594 406.622 403.49 407.322 404.638C408.05 405.758 408.414 407.06 408.414 408.544V424H405.264V419.506L405.726 419.968C405.334 420.808 404.718 421.578 403.878 422.278C403.066 422.95 402.1 423.496 400.98 423.916C399.888 424.308 398.684 424.504 397.368 424.504ZM414.893 424V401.488H418.043V405.856L417.329 405.688C417.889 404.232 418.799 403.084 420.059 402.244C421.347 401.404 422.831 400.984 424.511 400.984C426.107 400.984 427.535 401.348 428.795 402.076C430.083 402.804 431.091 403.812 431.819 405.1C432.575 406.36 432.953 407.788 432.953 409.384V424H429.803V410.602C429.803 409.23 429.551 408.068 429.047 407.116C428.571 406.164 427.885 405.436 426.989 404.932C426.121 404.4 425.113 404.134 423.965 404.134C422.817 404.134 421.795 404.4 420.899 404.932C420.003 405.436 419.303 406.178 418.799 407.158C418.295 408.11 418.043 409.258 418.043 410.602V424H414.893Z" fill="#FFFDF5" fill-opacity="0.8"/>
</svg>
