<svg width="512" height="512" viewBox="0 0 512 512" fill="none" xmlns="http://www.w3.org/2000/svg">
<path d="M139.393 304.005C138.428 304.451 137.573 304.375 136.732 304.375C126.244 304.379 115.755 304.37 105.267 304.386C103.284 304.39 101.375 304.278 100.572 302.039C99.7384 299.718 100.452 297.442 102.679 296.006C106.549 293.508 108.064 289.98 108.048 285.474C107.988 267.876 107.986 250.278 108.057 232.68C108.07 229.436 107.792 226.221 107.536 223.009C107.263 219.59 105.502 216.919 102.514 215.134C100.791 214.105 99.9262 212.618 100.005 210.591C100.111 207.859 101.937 206.165 105.085 206.095C108.81 206.013 112.533 206.339 116.248 206.404C123.559 206.532 130.879 206.726 138.196 206.281C140.012 206.17 141.891 206.534 142.669 208.688C143.435 210.808 142.841 213.168 140.827 214.445C138.073 216.193 136.06 218.414 135.506 221.68C135.179 223.609 134.983 225.58 134.955 227.536C134.88 232.814 134.92 238.094 134.926 243.374C134.929 246.456 136.485 248.126 139.533 248.117C146.007 248.098 152.479 247.966 158.954 248.176C161.472 248.258 163.269 246.35 163.359 243.812C163.593 237.263 163.159 230.727 162.87 224.194C162.706 220.502 161.367 217.254 157.912 215.164C155.497 213.703 154.861 211.635 155.659 209.21C156.402 206.954 157.811 206.027 160.756 206.079C166.094 206.174 171.432 206.317 176.768 206.493C181.77 206.658 186.749 206.141 191.743 206.073C193.862 206.044 195.901 206.245 196.779 208.629C197.699 211.125 196.993 213.51 194.589 215.077C190.784 217.557 189.362 221.025 189.376 225.459C189.442 245.52 189.406 265.582 189.39 285.644C189.387 289.908 190.572 293.496 194.473 295.854C195.764 296.635 196.955 297.679 197.031 299.492C197.162 302.615 195.739 304.335 192.596 304.349C181.756 304.399 170.915 304.39 160.075 304.359C158.342 304.355 156.648 303.996 155.915 302.106C155.108 300.025 155.692 297.33 157.544 296.244C162.205 293.513 163.533 289.383 163.399 284.289C163.232 277.888 163.367 271.479 163.357 265.073C163.351 261.595 161.823 260.036 158.355 260.024C152.02 260.003 145.684 260.007 139.349 260.028C136.009 260.04 134.516 261.581 134.511 264.974C134.501 271.521 134.447 278.068 134.529 284.614C134.588 289.286 135.709 293.383 140.147 296.123C143.356 298.104 142.883 302.168 139.393 304.005Z" fill="#FFFDF5"/>
<path d="M404 231.583C403.987 237.21 404.23 242.645 403.903 248.045C403.412 256.131 404.013 264.231 403.493 272.288C402.847 282.308 399.893 291.481 391.598 298.078C386.399 302.213 380.37 304.513 373.914 305.533C365.181 306.912 356.474 306.766 347.832 304.453C334.976 301.014 326.517 291.533 324.667 278.381C324.098 274.329 323.855 270.285 323.862 266.204C323.886 252.62 323.842 239.037 323.891 225.453C323.907 221.062 322.569 217.515 318.653 215.107C316.582 213.834 315.855 211.514 316.505 209.426C317.201 207.188 318.764 206.212 321.519 206.059C325.885 205.817 330.216 206.386 334.565 206.512C340.759 206.693 346.924 206.055 353.109 206.064C355.11 206.067 356.962 206.363 357.866 208.431C358.774 210.507 358.226 212.997 356.268 214.512C352.405 217.503 351.131 221.43 351.162 226.159C351.259 240.585 351.05 255.015 351.274 269.439C351.364 275.213 352.309 280.985 356.58 285.476C362.153 291.339 369.121 292.031 376.45 290.247C383.456 288.542 386.897 283.327 388.474 276.647C389.842 270.857 389.84 264.951 389.854 259.056C389.87 252.512 390.057 245.952 389.686 239.426C389.355 233.614 389.493 227.762 388.566 221.987C388.096 219.058 386.729 216.72 384.142 215.145C382.798 214.326 381.622 213.343 381.352 211.637C380.845 208.435 382.534 206.218 386.094 206.138C393.269 205.978 400.451 206.033 407.628 206.123C409.522 206.146 411.245 206.895 411.897 208.961C412.526 210.952 411.93 213.307 410.021 214.361C405.525 216.844 404.273 220.734 404.364 225.506C404.401 227.45 403.859 229.399 404 231.583Z" fill="#FFFDF5"/>
<path d="M213.705 209.826C214.604 206.736 216.936 206.076 219.525 206.094C225.992 206.137 232.448 206.657 238.923 206.51C242.858 206.421 246.768 205.891 250.717 206.039C252.734 206.115 254.53 206.32 255.316 208.54C256.108 210.777 255.525 213.035 253.514 214.544C251.354 216.165 249.649 218.052 249.141 220.77C248.859 222.283 248.674 223.824 248.571 225.361C247.953 234.56 248.144 243.773 248.134 252.982C248.127 258.966 247.985 264.954 248.181 270.93C248.331 275.503 249.106 280.005 251.631 284.005C254.478 288.515 258.514 290.881 263.877 290.985C267.84 291.061 271.765 291.043 275.293 288.823C279.804 285.984 282.118 281.726 283.336 276.688C285.248 268.781 284.575 260.742 284.578 252.748C284.581 244.941 284.357 237.132 284.132 229.327C284.063 226.955 283.737 224.582 283.393 222.229C282.93 219.065 281.32 216.64 278.55 214.928C276.197 213.473 275.449 211.277 276.253 208.758C276.906 206.712 278.749 206.205 280.469 206.172C287.575 206.036 294.687 206.025 301.794 206.142C303.703 206.173 305.643 206.864 306.242 209.06C306.806 211.131 306.411 213.237 304.468 214.261C299.176 217.05 298.624 221.927 298.41 227.023C298.343 228.639 298.395 230.261 298.396 231.88C298.404 245.383 298.258 258.897 297.826 272.38C297.32 288.152 289.285 300.875 271.541 304.846C259.359 307.571 247.378 307.142 236.09 301.224C227.713 296.833 223.227 289.587 221.619 280.37C220.853 275.98 220.807 271.577 220.813 267.152C220.831 252.933 220.766 238.714 220.843 224.495C220.864 220.623 219.409 217.637 216.265 215.541C214.2 214.164 213.347 212.403 213.705 209.826Z" fill="#FFFDF5"/>
<path d="M143.518 417.16C142.745 417.16 141.785 417.12 140.638 417.04C139.518 416.96 138.478 416.92 137.518 416.92C136.638 416.92 135.785 416.933 134.958 416.96C134.158 416.987 133.438 417 132.798 417C132.745 417 132.718 416.92 132.718 416.76C132.718 416.6 132.745 416.52 132.798 416.52C133.758 416.52 134.492 416.453 134.998 416.32C135.505 416.187 135.838 415.92 135.998 415.52C136.158 415.12 136.238 414.533 136.238 413.76V395.24C136.238 394.467 136.158 393.893 135.998 393.52C135.838 393.12 135.505 392.853 134.998 392.72C134.518 392.56 133.798 392.48 132.838 392.48C132.785 392.48 132.758 392.4 132.758 392.24C132.758 392.08 132.785 392 132.838 392C133.478 392 134.198 392.027 134.998 392.08C135.798 392.107 136.638 392.12 137.518 392.12C138.398 392.12 139.345 392.093 140.358 392.04C141.372 391.96 142.238 391.92 142.958 391.92C145.785 391.92 148.252 392.453 150.358 393.52C152.492 394.587 154.145 396.04 155.318 397.88C156.492 399.72 157.078 401.787 157.078 404.08C157.078 406.08 156.718 407.893 155.998 409.52C155.305 411.12 154.318 412.493 153.038 413.64C151.785 414.76 150.332 415.627 148.678 416.24C147.052 416.853 145.332 417.16 143.518 417.16ZM143.118 416.56C145.252 416.56 147.132 416.12 148.758 415.24C150.385 414.333 151.665 413.013 152.598 411.28C153.558 409.547 154.038 407.44 154.038 404.96C154.038 402.64 153.598 400.547 152.718 398.68C151.838 396.787 150.598 395.293 148.998 394.2C147.425 393.08 145.532 392.52 143.318 392.52C141.718 392.52 140.572 392.68 139.878 393C139.185 393.32 138.838 394.093 138.838 395.32V413.32C138.838 414.44 139.105 415.267 139.638 415.8C140.198 416.307 141.358 416.56 143.118 416.56ZM167.776 417.48C166.176 417.48 164.829 417.12 163.736 416.4C162.642 415.653 161.816 414.693 161.256 413.52C160.722 412.347 160.456 411.107 160.456 409.8C160.456 408.173 160.829 406.72 161.576 405.44C162.322 404.133 163.336 403.107 164.616 402.36C165.922 401.587 167.349 401.2 168.896 401.2C170.416 401.2 171.562 401.6 172.336 402.4C173.136 403.2 173.536 404.32 173.536 405.76C173.536 406.107 173.496 406.373 173.416 406.56C173.362 406.72 173.242 406.8 173.056 406.8H170.816C170.922 405.173 170.682 403.973 170.096 403.2C169.509 402.4 168.669 402 167.576 402C166.162 402 165.056 402.56 164.256 403.68C163.482 404.8 163.096 406.333 163.096 408.28C163.096 409.8 163.336 411.147 163.816 412.32C164.296 413.493 165.002 414.413 165.936 415.08C166.869 415.747 168.002 416.08 169.336 416.08C170.242 416.08 170.989 415.947 171.576 415.68C172.162 415.413 172.749 415.107 173.336 414.76C173.389 414.707 173.456 414.747 173.536 414.88C173.642 414.987 173.669 415.08 173.616 415.16C172.682 415.987 171.722 416.587 170.736 416.96C169.776 417.307 168.789 417.48 167.776 417.48ZM162.376 406.84L162.336 406.32L171.416 406.16V406.8L162.376 406.84ZM179.344 404C179.344 404.693 179.517 405.28 179.864 405.76C180.237 406.24 180.69 406.653 181.224 407C181.784 407.32 182.37 407.64 182.984 407.96C183.677 408.307 184.33 408.68 184.944 409.08C185.557 409.453 186.064 409.92 186.464 410.48C186.864 411.013 187.064 411.72 187.064 412.6C187.064 413.453 186.85 414.253 186.424 415C185.997 415.72 185.357 416.307 184.504 416.76C183.677 417.213 182.65 417.44 181.424 417.44C180.757 417.44 180.117 417.347 179.504 417.16C178.89 417 178.25 416.693 177.584 416.24C177.53 416.187 177.477 416.12 177.424 416.04C177.37 415.96 177.344 415.867 177.344 415.76L177.264 412.64C177.264 412.56 177.33 412.52 177.464 412.52C177.624 412.493 177.717 412.52 177.744 412.6C178.064 413.507 178.464 414.267 178.944 414.88C179.424 415.467 179.97 415.92 180.584 416.24C181.197 416.533 181.85 416.68 182.544 416.68C183.397 416.68 184.05 416.467 184.504 416.04C184.984 415.613 185.21 414.987 185.184 414.16C185.157 413.387 184.957 412.76 184.584 412.28C184.21 411.8 183.744 411.4 183.184 411.08C182.65 410.733 182.09 410.413 181.504 410.12C180.837 409.8 180.197 409.467 179.584 409.12C178.997 408.747 178.504 408.28 178.104 407.72C177.73 407.16 177.544 406.427 177.544 405.52C177.544 404.48 177.81 403.64 178.344 403C178.877 402.333 179.557 401.853 180.384 401.56C181.21 401.24 182.077 401.08 182.984 401.08C183.49 401.08 183.984 401.12 184.464 401.2C184.944 401.28 185.424 401.44 185.904 401.68C186.144 401.76 186.264 401.907 186.264 402.12C186.264 402.547 186.25 403 186.224 403.48C186.197 403.933 186.184 404.453 186.184 405.04C186.184 405.093 186.104 405.12 185.944 405.12C185.784 405.12 185.704 405.093 185.704 405.04C185.704 404.427 185.49 403.88 185.064 403.4C184.637 402.92 184.104 402.547 183.464 402.28C182.824 401.987 182.184 401.84 181.544 401.84C180.904 401.84 180.37 402.013 179.944 402.36C179.544 402.707 179.344 403.253 179.344 404ZM190.979 417C190.926 417 190.899 416.92 190.899 416.76C190.899 416.6 190.926 416.52 190.979 416.52C192.019 416.52 192.699 416.347 193.019 416C193.366 415.627 193.539 414.88 193.539 413.76V406.28C193.539 405.347 193.446 404.667 193.259 404.24C193.073 403.787 192.726 403.56 192.219 403.56C192.006 403.56 191.753 403.613 191.459 403.72C191.166 403.8 190.819 403.933 190.419 404.12C190.313 404.147 190.219 404.093 190.139 403.96C190.086 403.8 190.099 403.693 190.179 403.64L195.379 401.24C195.459 401.213 195.513 401.2 195.539 401.2C195.593 401.2 195.659 401.24 195.739 401.32C195.819 401.373 195.859 401.44 195.859 401.52C195.859 401.733 195.846 402.253 195.819 403.08C195.793 403.907 195.779 404.96 195.779 406.24V413.76C195.779 414.88 195.926 415.627 196.219 416C196.539 416.347 197.233 416.52 198.299 416.52C198.379 416.52 198.419 416.6 198.419 416.76C198.419 416.92 198.379 417 198.299 417C197.819 417 197.259 416.987 196.619 416.96C196.006 416.933 195.353 416.92 194.659 416.92C193.966 416.92 193.299 416.933 192.659 416.96C192.046 416.987 191.486 417 190.979 417ZM194.339 396.52C193.806 396.52 193.379 396.373 193.059 396.08C192.739 395.787 192.579 395.373 192.579 394.84C192.579 394.307 192.739 393.893 193.059 393.6C193.379 393.307 193.806 393.16 194.339 393.16C194.873 393.16 195.286 393.307 195.579 393.6C195.873 393.893 196.019 394.307 196.019 394.84C196.019 395.96 195.459 396.52 194.339 396.52ZM206.997 428.2C205.13 428.2 203.677 427.773 202.637 426.92C201.597 426.093 201.077 425.053 201.077 423.8C201.077 422.52 201.61 421.293 202.677 420.12C203.744 418.973 205.25 417.84 207.197 416.72L207.637 417.24C206.864 417.613 206.144 418.027 205.477 418.48C204.837 418.933 204.317 419.467 203.917 420.08C203.544 420.72 203.357 421.52 203.357 422.48C203.357 423.387 203.557 424.173 203.957 424.84C204.384 425.533 204.984 426.067 205.757 426.44C206.557 426.813 207.517 427 208.637 427C210.477 427 211.984 426.52 213.157 425.56C214.33 424.6 214.917 423.293 214.917 421.64C214.917 420.52 214.637 419.72 214.077 419.24C213.544 418.76 212.797 418.453 211.837 418.32C210.904 418.213 209.81 418.16 208.557 418.16C207.384 418.133 206.304 418.067 205.317 417.96C204.33 417.88 203.544 417.627 202.957 417.2C202.37 416.8 202.077 416.16 202.077 415.28C202.077 414.373 202.37 413.587 202.957 412.92C203.544 412.227 204.357 411.48 205.397 410.68L205.837 411.04C205.197 411.547 204.744 412.013 204.477 412.44C204.21 412.867 204.077 413.333 204.077 413.84C204.077 414.427 204.264 414.88 204.637 415.2C205.01 415.52 205.624 415.747 206.477 415.88C207.33 415.987 208.464 416.053 209.877 416.08C210.544 416.08 211.264 416.093 212.037 416.12C212.837 416.147 213.61 416.28 214.357 416.52C215.104 416.733 215.717 417.12 216.197 417.68C216.677 418.24 216.917 419.053 216.917 420.12C216.917 421.24 216.637 422.28 216.077 423.24C215.544 424.227 214.81 425.093 213.877 425.84C212.944 426.587 211.877 427.16 210.677 427.56C209.477 427.987 208.25 428.2 206.997 428.2ZM208.157 411.68C206.877 411.68 205.784 411.44 204.877 410.96C203.97 410.48 203.277 409.84 202.797 409.04C202.317 408.24 202.077 407.387 202.077 406.48C202.077 405.493 202.344 404.613 202.877 403.84C203.41 403.04 204.157 402.413 205.117 401.96C206.077 401.507 207.184 401.28 208.437 401.28C209.877 401.28 211.037 401.547 211.917 402.08C212.797 402.587 213.437 403.24 213.837 404.04C214.237 404.813 214.437 405.6 214.437 406.4C214.437 407.333 214.184 408.2 213.677 409C213.17 409.8 212.437 410.453 211.477 410.96C210.544 411.44 209.437 411.68 208.157 411.68ZM208.917 411.08C209.77 411.08 210.477 410.787 211.037 410.2C211.624 409.613 211.917 408.64 211.917 407.28C211.917 406.133 211.717 405.16 211.317 404.36C210.917 403.56 210.384 402.947 209.717 402.52C209.05 402.093 208.304 401.88 207.477 401.88C206.597 401.88 205.877 402.16 205.317 402.72C204.784 403.28 204.517 404.213 204.517 405.52C204.517 406.773 204.744 407.813 205.197 408.64C205.65 409.467 206.21 410.08 206.877 410.48C207.544 410.88 208.224 411.08 208.917 411.08ZM211.837 404.28L211.877 402.96C212.704 402.427 213.504 402.013 214.277 401.72C215.05 401.4 215.917 401.24 216.877 401.24C216.93 401.24 216.97 401.333 216.997 401.52C217.05 401.707 217.077 401.907 217.077 402.12C217.077 402.413 217.037 402.733 216.957 403.08C216.904 403.4 216.824 403.533 216.717 403.48C216.477 403.373 216.117 403.253 215.637 403.12C215.184 402.96 214.65 402.88 214.037 402.88C213.69 402.88 213.37 402.907 213.077 402.96C212.784 403.013 212.49 403.08 212.197 403.16L211.837 404.28ZM230.169 417C230.089 417 230.049 416.92 230.049 416.76C230.049 416.6 230.089 416.52 230.169 416.52C231.209 416.52 231.876 416.347 232.169 416C232.489 415.627 232.649 414.88 232.649 413.76V407.28C232.649 405.68 232.356 404.52 231.769 403.8C231.183 403.053 230.249 402.68 228.969 402.68C228.009 402.68 227.023 402.987 226.009 403.6C224.996 404.213 224.129 405.053 223.409 406.12L223.249 405.64C224.423 404.067 225.583 402.907 226.729 402.16C227.903 401.413 229.089 401.04 230.289 401.04C231.756 401.04 232.889 401.453 233.689 402.28C234.516 403.08 234.929 404.293 234.929 405.92V413.76C234.929 414.88 235.076 415.627 235.369 416C235.689 416.347 236.369 416.52 237.409 416.52C237.489 416.52 237.529 416.6 237.529 416.76C237.529 416.92 237.489 417 237.409 417C236.956 417 236.409 416.987 235.769 416.96C235.156 416.933 234.503 416.92 233.809 416.92C233.116 416.92 232.449 416.933 231.809 416.96C231.169 416.987 230.623 417 230.169 417ZM219.409 417C219.329 417 219.289 416.92 219.289 416.76C219.289 416.6 219.329 416.52 219.409 416.52C220.449 416.52 221.116 416.347 221.409 416C221.729 415.627 221.889 414.88 221.889 413.76V405.84C221.889 404.96 221.783 404.32 221.569 403.92C221.383 403.493 221.023 403.28 220.489 403.28C220.223 403.28 219.903 403.333 219.529 403.44C219.183 403.547 218.783 403.693 218.329 403.88C218.223 403.907 218.129 403.853 218.049 403.72C217.996 403.587 218.023 403.493 218.129 403.44L222.769 401.24C222.849 401.213 222.929 401.2 223.009 401.2C223.196 401.2 223.436 401.48 223.729 402.04C224.023 402.6 224.169 403.413 224.169 404.48V413.76C224.169 414.88 224.316 415.627 224.609 416C224.929 416.347 225.609 416.52 226.649 416.52C226.729 416.52 226.769 416.6 226.769 416.76C226.769 416.92 226.729 417 226.649 417C226.196 417 225.649 416.987 225.009 416.96C224.396 416.933 223.743 416.92 223.049 416.92C222.356 416.92 221.689 416.933 221.049 416.96C220.409 416.987 219.863 417 219.409 417ZM257.768 417.52C256.728 417.52 255.702 417.347 254.688 417C253.675 416.68 252.702 416.12 251.768 415.32L253.648 411.76C253.648 412.987 253.955 413.973 254.568 414.72C255.182 415.44 255.902 415.96 256.728 416.28C257.582 416.6 258.342 416.76 259.008 416.76C260.555 416.76 261.755 416.16 262.608 414.96C263.488 413.76 263.928 412.04 263.928 409.8C263.928 407.32 263.448 405.467 262.488 404.24C261.528 402.987 260.302 402.36 258.808 402.36C257.715 402.36 256.702 402.707 255.768 403.4C254.835 404.067 253.968 404.827 253.168 405.68L252.848 405.4C253.408 404.787 254.035 404.147 254.728 403.48C255.422 402.787 256.208 402.213 257.088 401.76C257.995 401.28 259.008 401.04 260.128 401.04C261.275 401.04 262.328 401.32 263.288 401.88C264.248 402.413 265.035 403.227 265.648 404.32C266.262 405.413 266.568 406.787 266.568 408.44C266.568 410.467 266.128 412.16 265.248 413.52C264.395 414.853 263.288 415.853 261.928 416.52C260.595 417.187 259.208 417.52 257.768 417.52ZM249.288 417.2C249.182 417.227 249.102 417.173 249.048 417.04C248.995 416.933 249.008 416.853 249.088 416.8C249.862 416.267 250.435 415.747 250.808 415.24C251.208 414.733 251.408 413.947 251.408 412.88V393.12C251.408 392.16 251.315 391.467 251.128 391.04C250.942 390.613 250.595 390.4 250.088 390.4C249.662 390.4 249.062 390.573 248.288 390.92C248.182 390.973 248.088 390.92 248.008 390.76C247.955 390.6 247.982 390.507 248.088 390.48L253.088 388.04C253.168 388.013 253.235 388 253.288 388C253.368 388 253.448 388.04 253.528 388.12C253.608 388.173 253.648 388.24 253.648 388.32V415.16L249.288 417.2ZM285.279 401.56C285.359 401.56 285.399 401.64 285.399 401.8C285.399 401.96 285.359 402.04 285.279 402.04C284.612 402.04 284.039 402.267 283.559 402.72C283.079 403.173 282.626 403.973 282.199 405.12L277.319 418.12C276.359 420.68 275.439 422.693 274.559 424.16C273.679 425.653 272.759 426.707 271.799 427.32C270.866 427.933 269.826 428.24 268.679 428.24C268.119 428.24 267.639 428.107 267.239 427.84C266.839 427.6 266.639 427.213 266.639 426.68C266.639 426.28 266.772 425.973 267.039 425.76C267.279 425.573 267.559 425.48 267.879 425.48C268.412 425.48 268.812 425.56 269.079 425.72C269.346 425.88 269.612 426.04 269.879 426.2C270.146 426.36 270.492 426.44 270.919 426.44C271.559 426.44 272.172 426.133 272.759 425.52C273.372 424.933 274.026 423.92 274.719 422.48C275.412 421.04 276.226 419.08 277.159 416.6L277.119 417.72L270.799 404.88C270.212 403.707 269.746 402.947 269.399 402.6C269.079 402.227 268.666 402.04 268.159 402.04C268.106 402.04 268.079 401.96 268.079 401.8C268.079 401.64 268.106 401.56 268.159 401.56C268.586 401.56 269.026 401.573 269.479 401.6C269.959 401.627 270.412 401.64 270.839 401.64C271.719 401.64 272.492 401.627 273.159 401.6C273.826 401.573 274.426 401.56 274.959 401.56C275.012 401.56 275.039 401.64 275.039 401.8C275.039 401.96 275.012 402.04 274.959 402.04C274.106 402.04 273.452 402.147 272.999 402.36C272.572 402.573 272.519 402.987 272.839 403.6L278.319 414.88L277.399 416.52L281.319 405.24C281.719 404.04 281.706 403.213 281.279 402.76C280.879 402.28 279.972 402.04 278.559 402.04C278.506 402.04 278.479 401.96 278.479 401.8C278.479 401.64 278.506 401.56 278.559 401.56C279.199 401.56 279.799 401.573 280.359 401.6C280.946 401.627 281.692 401.64 282.599 401.64C283.186 401.64 283.652 401.627 283.999 401.6C284.372 401.573 284.799 401.56 285.279 401.56ZM306.917 417.16C306.144 417.16 305.184 417.12 304.037 417.04C302.917 416.96 301.877 416.92 300.917 416.92C300.037 416.92 299.184 416.933 298.357 416.96C297.557 416.987 296.837 417 296.197 417C296.144 417 296.117 416.92 296.117 416.76C296.117 416.6 296.144 416.52 296.197 416.52C297.157 416.52 297.89 416.453 298.397 416.32C298.904 416.187 299.237 415.92 299.397 415.52C299.557 415.12 299.637 414.533 299.637 413.76V395.24C299.637 394.467 299.557 393.893 299.397 393.52C299.237 393.12 298.904 392.853 298.397 392.72C297.917 392.56 297.197 392.48 296.237 392.48C296.184 392.48 296.157 392.4 296.157 392.24C296.157 392.08 296.184 392 296.237 392C296.877 392 297.597 392.027 298.397 392.08C299.197 392.107 300.037 392.12 300.917 392.12C301.797 392.12 302.744 392.093 303.757 392.04C304.77 391.96 305.637 391.92 306.357 391.92C309.184 391.92 311.65 392.453 313.757 393.52C315.89 394.587 317.544 396.04 318.717 397.88C319.89 399.72 320.477 401.787 320.477 404.08C320.477 406.08 320.117 407.893 319.397 409.52C318.704 411.12 317.717 412.493 316.437 413.64C315.184 414.76 313.73 415.627 312.077 416.24C310.45 416.853 308.73 417.16 306.917 417.16ZM306.517 416.56C308.65 416.56 310.53 416.12 312.157 415.24C313.784 414.333 315.064 413.013 315.997 411.28C316.957 409.547 317.437 407.44 317.437 404.96C317.437 402.64 316.997 400.547 316.117 398.68C315.237 396.787 313.997 395.293 312.397 394.2C310.824 393.08 308.93 392.52 306.717 392.52C305.117 392.52 303.97 392.68 303.277 393C302.584 393.32 302.237 394.093 302.237 395.32V413.32C302.237 414.44 302.504 415.267 303.037 415.8C303.597 416.307 304.757 416.56 306.517 416.56ZM329.733 417.32C328.426 417.32 327.386 416.907 326.613 416.08C325.866 415.227 325.493 414 325.493 412.4V406.28C325.493 405.24 325.4 404.493 325.213 404.04C325.053 403.56 324.746 403.32 324.293 403.32C323.92 403.32 323.466 403.453 322.933 403.72C322.826 403.747 322.733 403.68 322.653 403.52C322.6 403.36 322.626 403.267 322.733 403.24L327.173 401.24C327.226 401.213 327.28 401.2 327.333 401.2C327.413 401.2 327.493 401.24 327.573 401.32C327.68 401.373 327.733 401.44 327.733 401.52V411.08C327.733 412.653 328.013 413.827 328.573 414.6C329.133 415.347 329.973 415.72 331.093 415.72C332.106 415.72 333.12 415.413 334.133 414.8C335.173 414.187 336.08 413.36 336.853 412.32L337.053 412.76C335.826 414.333 334.613 415.493 333.413 416.24C332.24 416.96 331.013 417.32 329.733 417.32ZM338.333 401.52V412.72C338.333 413.627 338.44 414.28 338.653 414.68C338.866 415.08 339.226 415.28 339.733 415.28C340 415.28 340.293 415.24 340.613 415.16C340.96 415.053 341.373 414.907 341.853 414.72C341.986 414.667 342.08 414.72 342.133 414.88C342.186 415.013 342.16 415.107 342.053 415.16L337.373 417.36C337.32 417.387 337.266 417.4 337.213 417.4C337 417.4 336.76 417.12 336.493 416.56C336.226 415.973 336.093 415.147 336.093 414.08V406.28C336.093 405.24 336 404.493 335.813 404.04C335.653 403.56 335.346 403.32 334.893 403.32C334.52 403.32 334.066 403.453 333.533 403.72C333.426 403.747 333.346 403.68 333.293 403.52C333.24 403.36 333.266 403.267 333.373 403.24L337.813 401.24C337.866 401.213 337.906 401.2 337.933 401.2C338.013 401.2 338.093 401.24 338.173 401.32C338.28 401.373 338.333 401.44 338.333 401.52ZM354.74 417.24C354.633 417.293 354.526 417.32 354.42 417.32C354.073 417.32 353.74 417.04 353.42 416.48C353.1 415.893 352.94 415.053 352.94 413.96V406.4C352.94 404.747 352.7 403.587 352.22 402.92C351.766 402.253 351.166 401.92 350.42 401.92C349.753 401.92 349.206 402.093 348.78 402.44C348.353 402.76 348.033 403.147 347.82 403.6C347.633 404.053 347.5 404.48 347.42 404.88C347.34 405.253 347.206 405.627 347.02 406C346.833 406.347 346.46 406.52 345.9 406.52C345.446 406.52 345.113 406.4 344.9 406.16C344.686 405.893 344.58 405.613 344.58 405.32C344.58 404.813 344.82 404.32 345.3 403.84C345.806 403.36 346.433 402.92 347.18 402.52C347.953 402.093 348.753 401.76 349.58 401.52C350.433 401.28 351.193 401.16 351.86 401.16C352.953 401.16 353.78 401.52 354.34 402.24C354.9 402.933 355.18 403.92 355.18 405.2V412.68C355.18 413.613 355.3 414.293 355.54 414.72C355.78 415.147 356.166 415.36 356.7 415.36C357.18 415.36 357.846 415.187 358.7 414.84C358.833 414.787 358.926 414.84 358.98 415C359.033 415.133 358.993 415.227 358.86 415.28L354.74 417.24ZM347.54 417.28C346.526 417.28 345.753 417.013 345.22 416.48C344.686 415.92 344.42 415.267 344.42 414.52C344.42 413.987 344.553 413.507 344.82 413.08C345.113 412.627 345.566 412.213 346.18 411.84C346.793 411.467 347.58 411.107 348.54 410.76L353.34 408.96L353.46 409.48L349.22 411.12C348.74 411.307 348.34 411.52 348.02 411.76C347.7 412 347.46 412.267 347.3 412.56C347.166 412.853 347.1 413.173 347.1 413.52C347.1 414.133 347.3 414.667 347.7 415.12C348.1 415.573 348.646 415.8 349.34 415.8C349.606 415.8 349.886 415.76 350.18 415.68C350.473 415.6 350.833 415.427 351.26 415.16L353.78 413.64L353.86 414.16L350.9 416.08C350.26 416.507 349.673 416.813 349.14 417C348.633 417.187 348.1 417.28 347.54 417.28ZM371.498 417C371.418 417 371.378 416.92 371.378 416.76C371.378 416.6 371.418 416.52 371.498 416.52C372.538 416.52 373.204 416.347 373.498 416C373.818 415.627 373.978 414.88 373.978 413.76V407.28C373.978 405.68 373.684 404.52 373.098 403.8C372.511 403.053 371.578 402.68 370.298 402.68C369.338 402.68 368.351 402.987 367.338 403.6C366.324 404.213 365.458 405.053 364.738 406.12L364.578 405.64C365.751 404.067 366.911 402.907 368.058 402.16C369.231 401.413 370.418 401.04 371.618 401.04C373.084 401.04 374.218 401.453 375.018 402.28C375.844 403.08 376.258 404.293 376.258 405.92V413.76C376.258 414.88 376.404 415.627 376.698 416C377.018 416.347 377.698 416.52 378.738 416.52C378.818 416.52 378.858 416.6 378.858 416.76C378.858 416.92 378.818 417 378.738 417C378.284 417 377.738 416.987 377.098 416.96C376.484 416.933 375.831 416.92 375.138 416.92C374.444 416.92 373.778 416.933 373.138 416.96C372.498 416.987 371.951 417 371.498 417ZM360.738 417C360.658 417 360.618 416.92 360.618 416.76C360.618 416.6 360.658 416.52 360.738 416.52C361.778 416.52 362.444 416.347 362.738 416C363.058 415.627 363.218 414.88 363.218 413.76V405.84C363.218 404.96 363.111 404.32 362.898 403.92C362.711 403.493 362.351 403.28 361.818 403.28C361.551 403.28 361.231 403.333 360.858 403.44C360.511 403.547 360.111 403.693 359.658 403.88C359.551 403.907 359.458 403.853 359.378 403.72C359.324 403.587 359.351 403.493 359.458 403.44L364.098 401.24C364.178 401.213 364.258 401.2 364.338 401.2C364.524 401.2 364.764 401.48 365.058 402.04C365.351 402.6 365.498 403.413 365.498 404.48V413.76C365.498 414.88 365.644 415.627 365.938 416C366.258 416.347 366.938 416.52 367.978 416.52C368.058 416.52 368.098 416.6 368.098 416.76C368.098 416.92 368.058 417 367.978 417C367.524 417 366.978 416.987 366.338 416.96C365.724 416.933 365.071 416.92 364.378 416.92C363.684 416.92 363.018 416.933 362.378 416.96C361.738 416.987 361.191 417 360.738 417Z" fill="#FFFDF5" fill-opacity="0.5"/>
</svg>
