<svg width="512" height="512" viewBox="0 0 512 512" fill="none" xmlns="http://www.w3.org/2000/svg">
<path d="M117.958 306.251C116.815 306.779 115.803 306.689 114.808 306.689C102.393 306.694 89.9777 306.683 77.5626 306.702C75.215 306.706 72.9558 306.574 72.0047 303.924C71.0184 301.176 71.8634 298.483 74.4987 296.782C79.0798 293.825 80.8733 289.649 80.855 284.315C80.7837 263.485 80.7809 242.653 80.8654 221.822C80.881 217.983 80.5517 214.177 80.2484 210.375C79.9257 206.328 77.8409 203.167 74.3036 201.054C72.2642 199.836 71.2407 198.075 71.334 195.675C71.4596 192.441 73.6206 190.436 77.3473 190.354C81.7561 190.256 86.1638 190.642 90.5614 190.719C99.2147 190.871 107.88 191.101 116.541 190.574C118.691 190.443 120.915 190.874 121.836 193.423C122.743 195.933 122.039 198.726 119.656 200.238C116.396 202.307 114.013 204.936 113.357 208.801C112.97 211.085 112.738 213.419 112.705 215.733C112.616 221.982 112.663 228.232 112.67 234.481C112.675 238.129 114.516 240.107 118.124 240.096C125.787 240.074 133.448 239.917 141.113 240.165C144.093 240.262 146.22 238.004 146.327 234.999C146.604 227.248 146.09 219.511 145.748 211.778C145.555 207.408 143.969 203.563 139.88 201.089C137.021 199.36 136.268 196.911 137.213 194.041C138.092 191.37 139.76 190.273 143.246 190.335C149.564 190.447 155.883 190.616 162.199 190.825C168.12 191.021 174.015 190.408 179.925 190.328C182.434 190.294 184.847 190.531 185.886 193.353C186.975 196.308 186.14 199.131 183.295 200.986C178.791 203.922 177.107 208.026 177.124 213.275C177.202 237.022 177.159 260.769 177.141 284.517C177.137 289.564 178.539 293.812 183.157 296.603C184.685 297.527 186.095 298.763 186.185 300.909C186.34 304.606 184.656 306.642 180.935 306.659C168.104 306.717 155.272 306.707 142.44 306.671C140.389 306.665 138.383 306.241 137.515 304.003C136.56 301.54 137.251 298.349 139.444 297.064C144.961 293.831 146.532 288.942 146.375 282.913C146.177 275.336 146.336 267.749 146.324 260.167C146.318 256.05 144.508 254.204 140.404 254.191C132.904 254.166 125.405 254.17 117.906 254.195C113.953 254.209 112.185 256.033 112.179 260.05C112.168 267.799 112.103 275.549 112.2 283.297C112.27 288.829 113.598 293.678 118.85 296.921C122.649 299.266 122.089 304.077 117.958 306.251Z" fill="#FFFDF5"/>
<path d="M431.176 220.524C431.162 227.185 431.45 233.618 431.062 240.01C430.481 249.582 431.192 259.17 430.577 268.707C429.812 280.568 426.315 291.426 416.496 299.235C410.342 304.13 403.205 306.852 395.564 308.059C385.227 309.692 374.92 309.519 364.69 306.782C349.472 302.71 339.459 291.487 337.27 275.92C336.595 271.123 336.308 266.336 336.317 261.505C336.345 245.426 336.293 229.347 336.351 213.268C336.37 208.071 334.786 203.872 330.15 201.021C327.699 199.514 326.839 196.768 327.607 194.297C328.431 191.647 330.282 190.492 333.543 190.311C338.711 190.025 343.838 190.698 348.986 190.848C356.317 191.061 363.615 190.306 370.936 190.317C373.305 190.32 375.497 190.671 376.567 193.118C377.642 195.576 376.993 198.523 374.675 200.317C370.103 203.857 368.595 208.506 368.632 214.103C368.747 231.18 368.499 248.261 368.765 265.335C368.871 272.17 369.99 279.002 375.045 284.318C381.642 291.258 389.89 292.077 398.566 289.965C406.859 287.947 410.931 281.774 412.799 273.867C414.418 267.013 414.415 260.023 414.432 253.045C414.451 245.297 414.673 237.533 414.233 229.808C413.841 222.928 414.005 216.001 412.908 209.165C412.351 205.698 410.732 202.931 407.671 201.066C406.08 200.097 404.688 198.933 404.368 196.914C403.768 193.124 405.767 190.499 409.981 190.405C418.474 190.215 426.976 190.281 435.472 190.386C437.713 190.414 439.753 191.301 440.525 193.746C441.269 196.103 440.563 198.891 438.304 200.139C432.982 203.078 431.5 207.682 431.607 213.33C431.651 215.632 431.01 217.939 431.176 220.524Z" fill="#FFFDF5"/>
<path d="M205.922 194.77C206.987 191.113 209.747 190.332 212.812 190.352C220.467 190.403 228.108 191.018 235.773 190.845C240.431 190.74 245.06 190.112 249.733 190.288C252.122 190.378 254.247 190.62 255.178 193.248C256.116 195.896 255.425 198.569 253.044 200.355C250.488 202.273 248.469 204.507 247.869 207.724C247.534 209.516 247.316 211.34 247.194 213.159C246.462 224.048 246.688 234.953 246.676 245.855C246.668 252.937 246.5 260.025 246.732 267.1C246.91 272.513 247.827 277.842 250.816 282.577C254.186 287.916 258.964 290.715 265.312 290.838C270.003 290.929 274.649 290.907 278.825 288.28C284.165 284.92 286.904 279.879 288.346 273.916C290.609 264.555 289.812 255.04 289.816 245.578C289.819 236.336 289.554 227.093 289.287 217.854C289.206 215.046 288.82 212.237 288.413 209.452C287.865 205.706 285.959 202.836 282.68 200.809C279.895 199.087 279.009 196.488 279.961 193.506C280.733 191.084 282.915 190.483 284.951 190.444C293.363 190.284 301.781 190.271 310.194 190.409C312.454 190.447 314.751 191.264 315.459 193.863C316.128 196.315 315.66 198.808 313.36 200.02C307.095 203.321 306.442 209.094 306.189 215.126C306.109 217.04 306.171 218.959 306.172 220.875C306.181 236.859 306.009 252.856 305.497 268.816C304.899 287.485 295.387 302.546 274.383 307.246C259.964 310.473 245.781 309.964 232.419 302.959C222.504 297.761 217.194 289.184 215.29 278.274C214.384 273.078 214.329 267.866 214.336 262.628C214.358 245.796 214.28 228.965 214.371 212.134C214.396 207.55 212.674 204.016 208.952 201.535C206.508 199.905 205.499 197.821 205.922 194.77Z" fill="#FFFDF5"/>
</svg>
