<svg width="512" height="512" viewBox="0 0 512 512" fill="none" xmlns="http://www.w3.org/2000/svg">
<path d="M139.393 304.005C138.428 304.451 137.573 304.375 136.732 304.375C126.244 304.379 115.755 304.37 105.267 304.386C103.284 304.39 101.375 304.278 100.572 302.039C99.7384 299.718 100.452 297.442 102.679 296.006C106.549 293.508 108.064 289.98 108.048 285.474C107.988 267.876 107.986 250.278 108.057 232.68C108.07 229.436 107.792 226.221 107.536 223.009C107.263 219.59 105.502 216.919 102.514 215.134C100.791 214.105 99.9262 212.618 100.005 210.591C100.111 207.859 101.937 206.165 105.085 206.095C108.81 206.013 112.533 206.339 116.248 206.404C123.559 206.532 130.879 206.726 138.196 206.281C140.012 206.17 141.891 206.534 142.669 208.688C143.435 210.808 142.841 213.168 140.827 214.445C138.073 216.193 136.06 218.414 135.506 221.68C135.179 223.609 134.983 225.58 134.955 227.536C134.88 232.814 134.92 238.094 134.926 243.374C134.929 246.456 136.485 248.126 139.533 248.117C146.007 248.098 152.479 247.966 158.954 248.176C161.472 248.258 163.269 246.35 163.359 243.812C163.593 237.263 163.159 230.727 162.87 224.194C162.706 220.502 161.367 217.254 157.912 215.164C155.497 213.703 154.861 211.635 155.659 209.21C156.402 206.954 157.811 206.027 160.756 206.079C166.094 206.174 171.432 206.317 176.768 206.493C181.77 206.658 186.749 206.141 191.743 206.073C193.862 206.044 195.901 206.245 196.779 208.629C197.699 211.125 196.993 213.51 194.589 215.077C190.784 217.557 189.362 221.025 189.376 225.459C189.442 245.52 189.406 265.582 189.39 285.644C189.387 289.908 190.572 293.496 194.473 295.854C195.764 296.635 196.955 297.679 197.031 299.492C197.162 302.615 195.739 304.335 192.596 304.349C181.756 304.399 170.915 304.39 160.075 304.359C158.342 304.355 156.648 303.996 155.915 302.106C155.108 300.025 155.692 297.33 157.544 296.244C162.205 293.513 163.533 289.383 163.399 284.289C163.232 277.888 163.367 271.479 163.357 265.073C163.351 261.595 161.823 260.036 158.355 260.024C152.02 260.003 145.684 260.007 139.349 260.028C136.009 260.04 134.516 261.581 134.511 264.974C134.501 271.521 134.447 278.068 134.529 284.614C134.588 289.286 135.709 293.383 140.147 296.123C143.356 298.104 142.883 302.168 139.393 304.005Z" fill="#FFFDF5"/>
<path d="M404 231.583C403.987 237.21 404.23 242.645 403.903 248.045C403.412 256.131 404.013 264.231 403.493 272.288C402.847 282.308 399.893 291.481 391.598 298.078C386.399 302.213 380.37 304.513 373.914 305.533C365.181 306.912 356.474 306.766 347.832 304.453C334.976 301.014 326.517 291.533 324.667 278.381C324.098 274.329 323.855 270.285 323.862 266.204C323.886 252.62 323.842 239.037 323.891 225.453C323.907 221.062 322.569 217.515 318.653 215.107C316.582 213.834 315.855 211.514 316.505 209.426C317.201 207.188 318.764 206.212 321.519 206.059C325.885 205.817 330.216 206.386 334.565 206.512C340.759 206.693 346.924 206.055 353.109 206.064C355.11 206.067 356.962 206.363 357.866 208.431C358.774 210.507 358.226 212.997 356.268 214.512C352.405 217.503 351.131 221.43 351.162 226.159C351.259 240.585 351.05 255.015 351.274 269.439C351.364 275.213 352.309 280.985 356.58 285.476C362.153 291.339 369.121 292.031 376.45 290.247C383.456 288.542 386.897 283.327 388.474 276.647C389.842 270.857 389.84 264.951 389.854 259.056C389.87 252.512 390.057 245.952 389.686 239.426C389.355 233.614 389.493 227.762 388.566 221.987C388.096 219.058 386.729 216.72 384.142 215.145C382.798 214.326 381.622 213.343 381.352 211.637C380.845 208.435 382.534 206.218 386.094 206.138C393.269 205.978 400.451 206.033 407.628 206.123C409.522 206.146 411.245 206.895 411.897 208.961C412.526 210.952 411.93 213.307 410.021 214.361C405.525 216.844 404.273 220.734 404.364 225.506C404.401 227.45 403.859 229.399 404 231.583Z" fill="#FFFDF5"/>
<path d="M213.705 209.826C214.604 206.736 216.936 206.076 219.525 206.094C225.992 206.137 232.448 206.657 238.923 206.51C242.858 206.421 246.768 205.891 250.717 206.039C252.734 206.115 254.53 206.32 255.316 208.54C256.108 210.777 255.525 213.035 253.514 214.544C251.354 216.165 249.649 218.052 249.141 220.77C248.859 222.283 248.674 223.824 248.571 225.361C247.953 234.56 248.144 243.773 248.134 252.982C248.127 258.966 247.985 264.954 248.181 270.93C248.331 275.503 249.106 280.005 251.631 284.005C254.478 288.515 258.514 290.881 263.877 290.985C267.84 291.061 271.765 291.043 275.293 288.823C279.804 285.984 282.118 281.726 283.336 276.688C285.248 268.781 284.575 260.742 284.578 252.748C284.581 244.941 284.357 237.132 284.132 229.327C284.063 226.955 283.737 224.582 283.393 222.229C282.93 219.065 281.32 216.64 278.55 214.928C276.197 213.473 275.449 211.277 276.253 208.758C276.906 206.712 278.749 206.205 280.469 206.172C287.575 206.036 294.687 206.025 301.794 206.142C303.703 206.173 305.643 206.864 306.242 209.06C306.806 211.131 306.411 213.237 304.468 214.261C299.176 217.05 298.624 221.927 298.41 227.023C298.343 228.639 298.395 230.261 298.396 231.88C298.404 245.383 298.258 258.897 297.826 272.38C297.32 288.152 289.285 300.875 271.541 304.846C259.359 307.571 247.378 307.142 236.09 301.224C227.713 296.833 223.227 289.587 221.619 280.37C220.853 275.98 220.807 271.577 220.813 267.152C220.831 252.933 220.766 238.714 220.843 224.495C220.864 220.623 219.409 217.637 216.265 215.541C214.2 214.164 213.347 212.403 213.705 209.826Z" fill="#FFFDF5"/>
<path d="M129.021 421.18C128.151 421.18 127.071 421.135 125.781 421.045C124.521 420.955 123.351 420.91 122.271 420.91C121.281 420.91 120.321 420.925 119.391 420.955C118.491 420.985 117.681 421 116.961 421C116.901 421 116.871 420.91 116.871 420.73C116.871 420.55 116.901 420.46 116.961 420.46C118.041 420.46 118.866 420.385 119.436 420.235C120.006 420.085 120.381 419.785 120.561 419.335C120.741 418.885 120.831 418.225 120.831 417.355V396.52C120.831 395.65 120.741 395.005 120.561 394.585C120.381 394.135 120.006 393.835 119.436 393.685C118.896 393.505 118.086 393.415 117.006 393.415C116.946 393.415 116.916 393.325 116.916 393.145C116.916 392.965 116.946 392.875 117.006 392.875C117.726 392.875 118.536 392.905 119.436 392.965C120.336 392.995 121.281 393.01 122.271 393.01C123.261 393.01 124.326 392.98 125.466 392.92C126.606 392.83 127.581 392.785 128.391 392.785C131.571 392.785 134.346 393.385 136.716 394.585C139.116 395.785 140.976 397.42 142.296 399.49C143.616 401.56 144.276 403.885 144.276 406.465C144.276 408.715 143.871 410.755 143.061 412.585C142.281 414.385 141.171 415.93 139.731 417.22C138.321 418.48 136.686 419.455 134.826 420.145C132.996 420.835 131.061 421.18 129.021 421.18ZM128.571 420.505C130.971 420.505 133.086 420.01 134.916 419.02C136.746 418 138.186 416.515 139.236 414.565C140.316 412.615 140.856 410.245 140.856 407.455C140.856 404.845 140.361 402.49 139.371 400.39C138.381 398.26 136.986 396.58 135.186 395.35C133.416 394.09 131.286 393.46 128.796 393.46C126.996 393.46 125.706 393.64 124.926 394C124.146 394.36 123.756 395.23 123.756 396.61V416.86C123.756 418.12 124.056 419.05 124.656 419.65C125.286 420.22 126.591 420.505 128.571 420.505ZM156.31 421.54C154.51 421.54 152.995 421.135 151.765 420.325C150.535 419.485 149.605 418.405 148.975 417.085C148.375 415.765 148.075 414.37 148.075 412.9C148.075 411.07 148.495 409.435 149.335 407.995C150.175 406.525 151.315 405.37 152.755 404.53C154.225 403.66 155.83 403.225 157.57 403.225C159.28 403.225 160.57 403.675 161.44 404.575C162.34 405.475 162.79 406.735 162.79 408.355C162.79 408.745 162.745 409.045 162.655 409.255C162.595 409.435 162.46 409.525 162.25 409.525H159.73C159.85 407.695 159.58 406.345 158.92 405.475C158.26 404.575 157.315 404.125 156.085 404.125C154.495 404.125 153.25 404.755 152.35 406.015C151.48 407.275 151.045 409 151.045 411.19C151.045 412.9 151.315 414.415 151.855 415.735C152.395 417.055 153.19 418.09 154.24 418.84C155.29 419.59 156.565 419.965 158.065 419.965C159.085 419.965 159.925 419.815 160.585 419.515C161.245 419.215 161.905 418.87 162.565 418.48C162.625 418.42 162.7 418.465 162.79 418.615C162.91 418.735 162.94 418.84 162.88 418.93C161.83 419.86 160.75 420.535 159.64 420.955C158.56 421.345 157.45 421.54 156.31 421.54ZM150.235 409.57L150.19 408.985L160.405 408.805V409.525L150.235 409.57ZM169.324 406.375C169.324 407.155 169.519 407.815 169.909 408.355C170.329 408.895 170.839 409.36 171.439 409.75C172.069 410.11 172.729 410.47 173.419 410.83C174.199 411.22 174.934 411.64 175.624 412.09C176.314 412.51 176.884 413.035 177.334 413.665C177.784 414.265 178.009 415.06 178.009 416.05C178.009 417.01 177.769 417.91 177.289 418.75C176.809 419.56 176.089 420.22 175.129 420.73C174.199 421.24 173.044 421.495 171.664 421.495C170.914 421.495 170.194 421.39 169.504 421.18C168.814 421 168.094 420.655 167.344 420.145C167.284 420.085 167.224 420.01 167.164 419.92C167.104 419.83 167.074 419.725 167.074 419.605L166.984 416.095C166.984 416.005 167.059 415.96 167.209 415.96C167.389 415.93 167.494 415.96 167.524 416.05C167.884 417.07 168.334 417.925 168.874 418.615C169.414 419.275 170.029 419.785 170.719 420.145C171.409 420.475 172.144 420.64 172.924 420.64C173.884 420.64 174.619 420.4 175.129 419.92C175.669 419.44 175.924 418.735 175.894 417.805C175.864 416.935 175.639 416.23 175.219 415.69C174.799 415.15 174.274 414.7 173.644 414.34C173.044 413.95 172.414 413.59 171.754 413.26C171.004 412.9 170.284 412.525 169.594 412.135C168.934 411.715 168.379 411.19 167.929 410.56C167.509 409.93 167.299 409.105 167.299 408.085C167.299 406.915 167.599 405.97 168.199 405.25C168.799 404.5 169.564 403.96 170.494 403.63C171.424 403.27 172.399 403.09 173.419 403.09C173.989 403.09 174.544 403.135 175.084 403.225C175.624 403.315 176.164 403.495 176.704 403.765C176.974 403.855 177.109 404.02 177.109 404.26C177.109 404.74 177.094 405.25 177.064 405.79C177.034 406.3 177.019 406.885 177.019 407.545C177.019 407.605 176.929 407.635 176.749 407.635C176.569 407.635 176.479 407.605 176.479 407.545C176.479 406.855 176.239 406.24 175.759 405.7C175.279 405.16 174.679 404.74 173.959 404.44C173.239 404.11 172.519 403.945 171.799 403.945C171.079 403.945 170.479 404.14 169.999 404.53C169.549 404.92 169.324 405.535 169.324 406.375ZM182.414 421C182.354 421 182.324 420.91 182.324 420.73C182.324 420.55 182.354 420.46 182.414 420.46C183.584 420.46 184.349 420.265 184.709 419.875C185.099 419.455 185.294 418.615 185.294 417.355V408.94C185.294 407.89 185.189 407.125 184.979 406.645C184.769 406.135 184.379 405.88 183.809 405.88C183.569 405.88 183.284 405.94 182.954 406.06C182.624 406.15 182.234 406.3 181.784 406.51C181.664 406.54 181.559 406.48 181.469 406.33C181.409 406.15 181.424 406.03 181.514 405.97L187.364 403.27C187.454 403.24 187.514 403.225 187.544 403.225C187.604 403.225 187.679 403.27 187.769 403.36C187.859 403.42 187.904 403.495 187.904 403.585C187.904 403.825 187.889 404.41 187.859 405.34C187.829 406.27 187.814 407.455 187.814 408.895V417.355C187.814 418.615 187.979 419.455 188.309 419.875C188.669 420.265 189.449 420.46 190.649 420.46C190.739 420.46 190.784 420.55 190.784 420.73C190.784 420.91 190.739 421 190.649 421C190.109 421 189.479 420.985 188.759 420.955C188.069 420.925 187.334 420.91 186.554 420.91C185.774 420.91 185.024 420.925 184.304 420.955C183.614 420.985 182.984 421 182.414 421ZM186.194 397.96C185.594 397.96 185.114 397.795 184.754 397.465C184.394 397.135 184.214 396.67 184.214 396.07C184.214 395.47 184.394 395.005 184.754 394.675C185.114 394.345 185.594 394.18 186.194 394.18C186.794 394.18 187.259 394.345 187.589 394.675C187.919 395.005 188.084 395.47 188.084 396.07C188.084 397.33 187.454 397.96 186.194 397.96ZM200.434 433.6C198.334 433.6 196.699 433.12 195.529 432.16C194.359 431.23 193.774 430.06 193.774 428.65C193.774 427.21 194.374 425.83 195.574 424.51C196.774 423.22 198.469 421.945 200.659 420.685L201.154 421.27C200.284 421.69 199.474 422.155 198.724 422.665C198.004 423.175 197.419 423.775 196.969 424.465C196.549 425.185 196.339 426.085 196.339 427.165C196.339 428.185 196.564 429.07 197.014 429.82C197.494 430.6 198.169 431.2 199.039 431.62C199.939 432.04 201.019 432.25 202.279 432.25C204.349 432.25 206.044 431.71 207.364 430.63C208.684 429.55 209.344 428.08 209.344 426.22C209.344 424.96 209.029 424.06 208.399 423.52C207.799 422.98 206.959 422.635 205.879 422.485C204.829 422.365 203.599 422.305 202.189 422.305C200.869 422.275 199.654 422.2 198.544 422.08C197.434 421.99 196.549 421.705 195.889 421.225C195.229 420.775 194.899 420.055 194.899 419.065C194.899 418.045 195.229 417.16 195.889 416.41C196.549 415.63 197.464 414.79 198.634 413.89L199.129 414.295C198.409 414.865 197.899 415.39 197.599 415.87C197.299 416.35 197.149 416.875 197.149 417.445C197.149 418.105 197.359 418.615 197.779 418.975C198.199 419.335 198.889 419.59 199.849 419.74C200.809 419.86 202.084 419.935 203.674 419.965C204.424 419.965 205.234 419.98 206.104 420.01C207.004 420.04 207.874 420.19 208.714 420.46C209.554 420.7 210.244 421.135 210.784 421.765C211.324 422.395 211.594 423.31 211.594 424.51C211.594 425.77 211.279 426.94 210.649 428.02C210.049 429.13 209.224 430.105 208.174 430.945C207.124 431.785 205.924 432.43 204.574 432.88C203.224 433.36 201.844 433.6 200.434 433.6ZM201.739 415.015C200.299 415.015 199.069 414.745 198.049 414.205C197.029 413.665 196.249 412.945 195.709 412.045C195.169 411.145 194.899 410.185 194.899 409.165C194.899 408.055 195.199 407.065 195.799 406.195C196.399 405.295 197.239 404.59 198.319 404.08C199.399 403.57 200.644 403.315 202.054 403.315C203.674 403.315 204.979 403.615 205.969 404.215C206.959 404.785 207.679 405.52 208.129 406.42C208.579 407.29 208.804 408.175 208.804 409.075C208.804 410.125 208.519 411.1 207.949 412C207.379 412.9 206.554 413.635 205.474 414.205C204.424 414.745 203.179 415.015 201.739 415.015ZM202.594 414.34C203.554 414.34 204.349 414.01 204.979 413.35C205.639 412.69 205.969 411.595 205.969 410.065C205.969 408.775 205.744 407.68 205.294 406.78C204.844 405.88 204.244 405.19 203.494 404.71C202.744 404.23 201.904 403.99 200.974 403.99C199.984 403.99 199.174 404.305 198.544 404.935C197.944 405.565 197.644 406.615 197.644 408.085C197.644 409.495 197.899 410.665 198.409 411.595C198.919 412.525 199.549 413.215 200.299 413.665C201.049 414.115 201.814 414.34 202.594 414.34ZM205.879 406.69L205.924 405.205C206.854 404.605 207.754 404.14 208.624 403.81C209.494 403.45 210.469 403.27 211.549 403.27C211.609 403.27 211.654 403.375 211.684 403.585C211.744 403.795 211.774 404.02 211.774 404.26C211.774 404.59 211.729 404.95 211.639 405.34C211.579 405.7 211.489 405.85 211.369 405.79C211.099 405.67 210.694 405.535 210.154 405.385C209.644 405.205 209.044 405.115 208.354 405.115C207.964 405.115 207.604 405.145 207.274 405.205C206.944 405.265 206.614 405.34 206.284 405.43L205.879 406.69ZM226.503 421C226.413 421 226.368 420.91 226.368 420.73C226.368 420.55 226.413 420.46 226.503 420.46C227.673 420.46 228.423 420.265 228.753 419.875C229.113 419.455 229.293 418.615 229.293 417.355V410.065C229.293 408.265 228.963 406.96 228.303 406.15C227.643 405.31 226.593 404.89 225.153 404.89C224.073 404.89 222.963 405.235 221.823 405.925C220.683 406.615 219.708 407.56 218.898 408.76L218.718 408.22C220.038 406.45 221.343 405.145 222.633 404.305C223.953 403.465 225.288 403.045 226.638 403.045C228.288 403.045 229.563 403.51 230.463 404.44C231.393 405.34 231.858 406.705 231.858 408.535V417.355C231.858 418.615 232.023 419.455 232.353 419.875C232.713 420.265 233.478 420.46 234.648 420.46C234.738 420.46 234.783 420.55 234.783 420.73C234.783 420.91 234.738 421 234.648 421C234.138 421 233.523 420.985 232.803 420.955C232.113 420.925 231.378 420.91 230.598 420.91C229.818 420.91 229.068 420.925 228.348 420.955C227.628 420.985 227.013 421 226.503 421ZM214.398 421C214.308 421 214.263 420.91 214.263 420.73C214.263 420.55 214.308 420.46 214.398 420.46C215.568 420.46 216.318 420.265 216.648 419.875C217.008 419.455 217.188 418.615 217.188 417.355V408.445C217.188 407.455 217.068 406.735 216.828 406.285C216.618 405.805 216.213 405.565 215.613 405.565C215.313 405.565 214.953 405.625 214.533 405.745C214.143 405.865 213.693 406.03 213.183 406.24C213.063 406.27 212.958 406.21 212.868 406.06C212.808 405.91 212.838 405.805 212.958 405.745L218.178 403.27C218.268 403.24 218.358 403.225 218.448 403.225C218.658 403.225 218.928 403.54 219.258 404.17C219.588 404.8 219.753 405.715 219.753 406.915V417.355C219.753 418.615 219.918 419.455 220.248 419.875C220.608 420.265 221.373 420.46 222.543 420.46C222.633 420.46 222.678 420.55 222.678 420.73C222.678 420.91 222.633 421 222.543 421C222.033 421 221.418 420.985 220.698 420.955C220.008 420.925 219.273 420.91 218.493 420.91C217.713 420.91 216.963 420.925 216.243 420.955C215.523 420.985 214.908 421 214.398 421ZM257.552 421.585C256.382 421.585 255.227 421.39 254.087 421C252.947 420.64 251.852 420.01 250.802 419.11L252.917 415.105C252.917 416.485 253.262 417.595 253.952 418.435C254.642 419.245 255.452 419.83 256.382 420.19C257.342 420.55 258.197 420.73 258.947 420.73C260.687 420.73 262.037 420.055 262.997 418.705C263.987 417.355 264.482 415.42 264.482 412.9C264.482 410.11 263.942 408.025 262.862 406.645C261.782 405.235 260.402 404.53 258.722 404.53C257.492 404.53 256.352 404.92 255.302 405.7C254.252 406.45 253.277 407.305 252.377 408.265L252.017 407.95C252.647 407.26 253.352 406.54 254.132 405.79C254.912 405.01 255.797 404.365 256.787 403.855C257.807 403.315 258.947 403.045 260.207 403.045C261.497 403.045 262.682 403.36 263.762 403.99C264.842 404.59 265.727 405.505 266.417 406.735C267.107 407.965 267.452 409.51 267.452 411.37C267.452 413.65 266.957 415.555 265.967 417.085C265.007 418.585 263.762 419.71 262.232 420.46C260.732 421.21 259.172 421.585 257.552 421.585ZM248.012 421.225C247.892 421.255 247.802 421.195 247.742 421.045C247.682 420.925 247.697 420.835 247.787 420.775C248.657 420.175 249.302 419.59 249.722 419.02C250.172 418.45 250.397 417.565 250.397 416.365V394.135C250.397 393.055 250.292 392.275 250.082 391.795C249.872 391.315 249.482 391.075 248.912 391.075C248.432 391.075 247.757 391.27 246.887 391.66C246.767 391.72 246.662 391.66 246.572 391.48C246.512 391.3 246.542 391.195 246.662 391.165L252.287 388.42C252.377 388.39 252.452 388.375 252.512 388.375C252.602 388.375 252.692 388.42 252.782 388.51C252.872 388.57 252.917 388.645 252.917 388.735V418.93L248.012 421.225ZM288.501 403.63C288.591 403.63 288.636 403.72 288.636 403.9C288.636 404.08 288.591 404.17 288.501 404.17C287.751 404.17 287.106 404.425 286.566 404.935C286.026 405.445 285.516 406.345 285.036 407.635L279.546 422.26C278.466 425.14 277.431 427.405 276.441 429.055C275.451 430.735 274.416 431.92 273.336 432.61C272.286 433.3 271.116 433.645 269.826 433.645C269.196 433.645 268.656 433.495 268.206 433.195C267.756 432.925 267.531 432.49 267.531 431.89C267.531 431.44 267.681 431.095 267.981 430.855C268.251 430.645 268.566 430.54 268.926 430.54C269.526 430.54 269.976 430.63 270.276 430.81C270.576 430.99 270.876 431.17 271.176 431.35C271.476 431.53 271.866 431.62 272.346 431.62C273.066 431.62 273.756 431.275 274.416 430.585C275.106 429.925 275.841 428.785 276.621 427.165C277.401 425.545 278.316 423.34 279.366 420.55L279.321 421.81L272.211 407.365C271.551 406.045 271.026 405.19 270.636 404.8C270.276 404.38 269.811 404.17 269.241 404.17C269.181 404.17 269.151 404.08 269.151 403.9C269.151 403.72 269.181 403.63 269.241 403.63C269.721 403.63 270.216 403.645 270.726 403.675C271.266 403.705 271.776 403.72 272.256 403.72C273.246 403.72 274.116 403.705 274.866 403.675C275.616 403.645 276.291 403.63 276.891 403.63C276.951 403.63 276.981 403.72 276.981 403.9C276.981 404.08 276.951 404.17 276.891 404.17C275.931 404.17 275.196 404.29 274.686 404.53C274.206 404.77 274.146 405.235 274.506 405.925L280.671 418.615L279.636 420.46L284.046 407.77C284.496 406.42 284.481 405.49 284.001 404.98C283.551 404.44 282.531 404.17 280.941 404.17C280.881 404.17 280.851 404.08 280.851 403.9C280.851 403.72 280.881 403.63 280.941 403.63C281.661 403.63 282.336 403.645 282.966 403.675C283.626 403.705 284.466 403.72 285.486 403.72C286.146 403.72 286.671 403.705 287.061 403.675C287.481 403.645 287.961 403.63 288.501 403.63ZM312.844 421.18C311.974 421.18 310.894 421.135 309.604 421.045C308.344 420.955 307.174 420.91 306.094 420.91C305.104 420.91 304.144 420.925 303.214 420.955C302.314 420.985 301.504 421 300.784 421C300.724 421 300.694 420.91 300.694 420.73C300.694 420.55 300.724 420.46 300.784 420.46C301.864 420.46 302.689 420.385 303.259 420.235C303.829 420.085 304.204 419.785 304.384 419.335C304.564 418.885 304.654 418.225 304.654 417.355V396.52C304.654 395.65 304.564 395.005 304.384 394.585C304.204 394.135 303.829 393.835 303.259 393.685C302.719 393.505 301.909 393.415 300.829 393.415C300.769 393.415 300.739 393.325 300.739 393.145C300.739 392.965 300.769 392.875 300.829 392.875C301.549 392.875 302.359 392.905 303.259 392.965C304.159 392.995 305.104 393.01 306.094 393.01C307.084 393.01 308.149 392.98 309.289 392.92C310.429 392.83 311.404 392.785 312.214 392.785C315.394 392.785 318.169 393.385 320.539 394.585C322.939 395.785 324.799 397.42 326.119 399.49C327.439 401.56 328.099 403.885 328.099 406.465C328.099 408.715 327.694 410.755 326.884 412.585C326.104 414.385 324.994 415.93 323.554 417.22C322.144 418.48 320.509 419.455 318.649 420.145C316.819 420.835 314.884 421.18 312.844 421.18ZM312.394 420.505C314.794 420.505 316.909 420.01 318.739 419.02C320.569 418 322.009 416.515 323.059 414.565C324.139 412.615 324.679 410.245 324.679 407.455C324.679 404.845 324.184 402.49 323.194 400.39C322.204 398.26 320.809 396.58 319.009 395.35C317.239 394.09 315.109 393.46 312.619 393.46C310.819 393.46 309.529 393.64 308.749 394C307.969 394.36 307.579 395.23 307.579 396.61V416.86C307.579 418.12 307.879 419.05 308.479 419.65C309.109 420.22 310.414 420.505 312.394 420.505ZM338.512 421.36C337.042 421.36 335.872 420.895 335.002 419.965C334.162 419.005 333.742 417.625 333.742 415.825V408.94C333.742 407.77 333.637 406.93 333.427 406.42C333.247 405.88 332.902 405.61 332.392 405.61C331.972 405.61 331.462 405.76 330.862 406.06C330.742 406.09 330.637 406.015 330.547 405.835C330.487 405.655 330.517 405.55 330.637 405.52L335.632 403.27C335.692 403.24 335.752 403.225 335.812 403.225C335.902 403.225 335.992 403.27 336.082 403.36C336.202 403.42 336.262 403.495 336.262 403.585V414.34C336.262 416.11 336.577 417.43 337.207 418.3C337.837 419.14 338.782 419.56 340.042 419.56C341.182 419.56 342.322 419.215 343.462 418.525C344.632 417.835 345.652 416.905 346.522 415.735L346.747 416.23C345.367 418 344.002 419.305 342.652 420.145C341.332 420.955 339.952 421.36 338.512 421.36ZM348.187 403.585V416.185C348.187 417.205 348.307 417.94 348.547 418.39C348.787 418.84 349.192 419.065 349.762 419.065C350.062 419.065 350.392 419.02 350.752 418.93C351.142 418.81 351.607 418.645 352.147 418.435C352.297 418.375 352.402 418.435 352.462 418.615C352.522 418.765 352.492 418.87 352.372 418.93L347.107 421.405C347.047 421.435 346.987 421.45 346.927 421.45C346.687 421.45 346.417 421.135 346.117 420.505C345.817 419.845 345.667 418.915 345.667 417.715V408.94C345.667 407.77 345.562 406.93 345.352 406.42C345.172 405.88 344.827 405.61 344.317 405.61C343.897 405.61 343.387 405.76 342.787 406.06C342.667 406.09 342.577 406.015 342.517 405.835C342.457 405.655 342.487 405.55 342.607 405.52L347.602 403.27C347.662 403.24 347.707 403.225 347.737 403.225C347.827 403.225 347.917 403.27 348.007 403.36C348.127 403.42 348.187 403.495 348.187 403.585ZM366.645 421.27C366.525 421.33 366.405 421.36 366.285 421.36C365.895 421.36 365.52 421.045 365.16 420.415C364.8 419.755 364.62 418.81 364.62 417.58V409.075C364.62 407.215 364.35 405.91 363.81 405.16C363.3 404.41 362.625 404.035 361.785 404.035C361.035 404.035 360.42 404.23 359.94 404.62C359.46 404.98 359.1 405.415 358.86 405.925C358.65 406.435 358.5 406.915 358.41 407.365C358.32 407.785 358.17 408.205 357.96 408.625C357.75 409.015 357.33 409.21 356.7 409.21C356.19 409.21 355.815 409.075 355.575 408.805C355.335 408.505 355.215 408.19 355.215 407.86C355.215 407.29 355.485 406.735 356.025 406.195C356.595 405.655 357.3 405.16 358.14 404.71C359.01 404.23 359.91 403.855 360.84 403.585C361.8 403.315 362.655 403.18 363.405 403.18C364.635 403.18 365.565 403.585 366.195 404.395C366.825 405.175 367.14 406.285 367.14 407.725V416.14C367.14 417.19 367.275 417.955 367.545 418.435C367.815 418.915 368.25 419.155 368.85 419.155C369.39 419.155 370.14 418.96 371.1 418.57C371.25 418.51 371.355 418.57 371.415 418.75C371.475 418.9 371.43 419.005 371.28 419.065L366.645 421.27ZM358.545 421.315C357.405 421.315 356.535 421.015 355.935 420.415C355.335 419.785 355.035 419.05 355.035 418.21C355.035 417.61 355.185 417.07 355.485 416.59C355.815 416.08 356.325 415.615 357.015 415.195C357.705 414.775 358.59 414.37 359.67 413.98L365.07 411.955L365.205 412.54L360.435 414.385C359.895 414.595 359.445 414.835 359.085 415.105C358.725 415.375 358.455 415.675 358.275 416.005C358.125 416.335 358.05 416.695 358.05 417.085C358.05 417.775 358.275 418.375 358.725 418.885C359.175 419.395 359.79 419.65 360.57 419.65C360.87 419.65 361.185 419.605 361.515 419.515C361.845 419.425 362.25 419.23 362.73 418.93L365.565 417.22L365.655 417.805L362.325 419.965C361.605 420.445 360.945 420.79 360.345 421C359.775 421.21 359.175 421.315 358.545 421.315ZM385.497 421C385.407 421 385.362 420.91 385.362 420.73C385.362 420.55 385.407 420.46 385.497 420.46C386.667 420.46 387.417 420.265 387.747 419.875C388.107 419.455 388.287 418.615 388.287 417.355V410.065C388.287 408.265 387.957 406.96 387.297 406.15C386.637 405.31 385.587 404.89 384.147 404.89C383.067 404.89 381.957 405.235 380.817 405.925C379.677 406.615 378.702 407.56 377.892 408.76L377.712 408.22C379.032 406.45 380.337 405.145 381.627 404.305C382.947 403.465 384.282 403.045 385.632 403.045C387.282 403.045 388.557 403.51 389.457 404.44C390.387 405.34 390.852 406.705 390.852 408.535V417.355C390.852 418.615 391.017 419.455 391.347 419.875C391.707 420.265 392.472 420.46 393.642 420.46C393.732 420.46 393.777 420.55 393.777 420.73C393.777 420.91 393.732 421 393.642 421C393.132 421 392.517 420.985 391.797 420.955C391.107 420.925 390.372 420.91 389.592 420.91C388.812 420.91 388.062 420.925 387.342 420.955C386.622 420.985 386.007 421 385.497 421ZM373.392 421C373.302 421 373.257 420.91 373.257 420.73C373.257 420.55 373.302 420.46 373.392 420.46C374.562 420.46 375.312 420.265 375.642 419.875C376.002 419.455 376.182 418.615 376.182 417.355V408.445C376.182 407.455 376.062 406.735 375.822 406.285C375.612 405.805 375.207 405.565 374.607 405.565C374.307 405.565 373.947 405.625 373.527 405.745C373.137 405.865 372.687 406.03 372.177 406.24C372.057 406.27 371.952 406.21 371.862 406.06C371.802 405.91 371.832 405.805 371.952 405.745L377.172 403.27C377.262 403.24 377.352 403.225 377.442 403.225C377.652 403.225 377.922 403.54 378.252 404.17C378.582 404.8 378.747 405.715 378.747 406.915V417.355C378.747 418.615 378.912 419.455 379.242 419.875C379.602 420.265 380.367 420.46 381.537 420.46C381.627 420.46 381.672 420.55 381.672 420.73C381.672 420.91 381.627 421 381.537 421C381.027 421 380.412 420.985 379.692 420.955C379.002 420.925 378.267 420.91 377.487 420.91C376.707 420.91 375.957 420.925 375.237 420.955C374.517 420.985 373.902 421 373.392 421Z" fill="#FFFDF5" fill-opacity="0.8"/>
</svg>
